<svg xmlns="http://www.w3.org/2000/svg" width="152.377" height="336.189" viewBox="0 0 152.377 336.189">
  <g id="Character" transform="translate(-89.037 -94.476)">
    <g id="Group_97" data-name="Group 97">
      <g id="Group_96" data-name="Group 96">
        <g id="Group_95" data-name="Group 95">
          <path id="Path_87" data-name="Path 87" d="M118.07,158.128l-25.8,50.227,8.906,5.069,22.541-22.111Z" fill="#c6ff00" stroke="#263238" stroke-linecap="round" stroke-linejoin="round" stroke-miterlimit="10" stroke-width="1"/>
          <path id="Path_88" data-name="Path 88" d="M184.8,154.432l12.788,60.08,22.129,22.7s14.186,3.4,15.888,4.539,5.107,6.809,5.107,6.809l-2.27,1.135-10.214-4.539h-3.4l6.242,5.107-1.2,1.138-15.827-11.351-26.669-19.86-9.079-18.725Z" fill="#c6ff00" stroke="#263238" stroke-linecap="round" stroke-linejoin="round" stroke-miterlimit="10" stroke-width="1"/>
          <g id="Group_88" data-name="Group 88">
            <path id="Path_89" data-name="Path 89" d="M235.6,241.748c-1.7-1.135-15.888-4.539-15.888-4.539l-22.129-22.7-.867-4.071-10.9,6.54,1.554,3.205,26.669,19.86L229.868,251.4l1.2-1.138-6.242-5.107h3.4l10.214,4.539,2.27-1.135S237.3,242.883,235.6,241.748Z" fill="#fff" stroke="#263238" stroke-linecap="round" stroke-linejoin="round" stroke-miterlimit="10" stroke-width="1"/>
            <line id="Line_8" data-name="Line 8" x2="8.541" y2="5.526" transform="translate(230.611 243.315)" fill="none" stroke="#263238" stroke-linecap="round" stroke-linejoin="round" stroke-miterlimit="10" stroke-width="1"/>
            <line id="Line_9" data-name="Line 9" x2="7.419" y2="6.247" transform="translate(233.291 242.31)" fill="none" stroke="#263238" stroke-linecap="round" stroke-linejoin="round" stroke-miterlimit="10" stroke-width="1"/>
          </g>
          <g id="Group_89" data-name="Group 89">
            <path id="Path_90" data-name="Path 90" d="M140.946,149.015l-22.958,9.028s6.449,39.725,6.707,46.948-1.548,26.569,0,28.633,5.417,2.322,5.417,2.322l47.128-.249s4.035-2.017,2.421-9.28c-.9-4.029,1.011-35.871,1.526-42.578s3.612-29.407,3.612-29.407-19.089-5.417-24.248-6.191S144.815,146.436,140.946,149.015Z" fill="#c6ff00" stroke="#263238" stroke-linecap="round" stroke-linejoin="round" stroke-miterlimit="10" stroke-width="1"/>
            <line id="Line_10" data-name="Line 10" y1="2.091" x2="2.72" transform="translate(154.279 209.842)" fill="none" stroke="#263238" stroke-linecap="round" stroke-linejoin="round" stroke-miterlimit="10" stroke-width="1"/>
            <line id="Line_11" data-name="Line 11" y1="17.182" x2="22.364" transform="translate(128.862 214.278)" fill="none" stroke="#263238" stroke-linecap="round" stroke-linejoin="round" stroke-miterlimit="10" stroke-width="1"/>
            <line id="Line_12" data-name="Line 12" y1="14.069" x2="15.784" transform="translate(139.843 204.695)" fill="none" stroke="#263238" stroke-linecap="round" stroke-linejoin="round" stroke-miterlimit="10" stroke-width="1"/>
          </g>
          <path id="Path_91" data-name="Path 91" d="M145.566,142.5s-4.766,1.43-5.72,2.383-1.668,5.958-2.622,8.58-4.051,7.15-3.1,7.388,9.056-3.813,9.056-3.813l9.294,10.532,8.818-11.008s6.911,5.243,7.388,4.528-3.1-9.294-3.336-12.87-5.481-4.766-8.58-5S145.566,142.5,145.566,142.5Z" fill="#fff" stroke="#263238" stroke-linecap="round" stroke-linejoin="round" stroke-miterlimit="10" stroke-width="1"/>
          <path id="Path_92" data-name="Path 92" d="M143.523,136.724v13.941l8.688,16,8.284-16.2V135.915Z" fill="#fff" stroke="#263238" stroke-linecap="round" stroke-linejoin="round" stroke-miterlimit="10" stroke-width="1"/>
          <g id="Group_92" data-name="Group 92">
            <path id="Path_93" data-name="Path 93" d="M139.407,122.535s-4.222-4.544-5.734-1.415,2.076,8.735,3.468,10.144,2.951-1.4,2.951-1.4" fill="#fff" stroke="#263238" stroke-linecap="round" stroke-linejoin="round" stroke-miterlimit="10" stroke-width="1"/>
            <path id="Path_94" data-name="Path 94" d="M165.552,122.475s4.325-4.446,5.765-1.283-2.277,8.685-3.7,10.062-2.917-1.471-2.917-1.471" fill="#fff" stroke="#263238" stroke-linecap="round" stroke-linejoin="round" stroke-miterlimit="10" stroke-width="1"/>
            <path id="Path_95" data-name="Path 95" d="M166.8,119.818c0,11-6.468,26.16-14.447,26.16S137.9,130.816,137.9,119.818,144.372,99.9,152.35,99.9,166.8,108.82,166.8,119.818Z" fill="#fff" stroke="#263238" stroke-linecap="round" stroke-linejoin="round" stroke-miterlimit="10" stroke-width="1"/>
            <g id="Group_90" data-name="Group 90">
              <ellipse id="Ellipse_4" data-name="Ellipse 4" cx="0.806" cy="2.072" rx="0.806" ry="2.072" transform="translate(146.781 121.682)" fill="#263238"/>
              <ellipse id="Ellipse_5" data-name="Ellipse 5" cx="0.806" cy="2.072" rx="0.806" ry="2.072" transform="translate(155.187 121.682)" fill="#263238"/>
              <path id="Path_96" data-name="Path 96" d="M144.709,119.839s.461-3.224,5.527-3.224" fill="none" stroke="#263238" stroke-linecap="round" stroke-linejoin="round" stroke-miterlimit="10" stroke-width="1"/>
              <path id="Path_97" data-name="Path 97" d="M160.447,119.839s-.461-3.224-5.527-3.224" fill="none" stroke="#263238" stroke-linecap="round" stroke-linejoin="round" stroke-miterlimit="10" stroke-width="1"/>
              <path id="Path_98" data-name="Path 98" d="M153.308,121.912s-.349,5.589-.349,6.812-1.048,2.445-2.271,1.572l-1.223-.873" fill="none" stroke="#263238" stroke-linecap="round" stroke-linejoin="round" stroke-miterlimit="10" stroke-width="1"/>
              <path id="Path_99" data-name="Path 99" d="M147.472,133.886s2.994,2.072,8.06,0" fill="none" stroke="#263238" stroke-linecap="round" stroke-linejoin="round" stroke-miterlimit="10" stroke-width="1"/>
            </g>
            <path id="Path_100" data-name="Path 100" d="M163.728,114.3s-1.01,2.828.2,4.041,1.01,3.031.808,5.455.4,3.839,1.212,3.031,1.617-12.123,1.617-12.931S163.728,114.3,163.728,114.3Z" fill="#263238" stroke="#263238" stroke-linecap="round" stroke-linejoin="round" stroke-miterlimit="10" stroke-width="1"/>
            <g id="Group_91" data-name="Group 91">
              <path id="Path_101" data-name="Path 101" d="M138.068,118.135l.4,6.263a1.251,1.251,0,0,0,1.616-.808c.4-1.212-.606-5.051.4-7.071s4.849-3.031,5.051-4.445-2.021-4.041-2.021-5.051.606-2.02,5.657,2.829,14.345,5.859,19.194,4.647-1.01-8.486-2.223-10.1,3.233-.4.808-4.445-10.91-6.667-19.4-3.637-13.335,7.274-12.123,11.517S138.068,118.135,138.068,118.135Z" fill="#263238" stroke="#263238" stroke-linecap="round" stroke-linejoin="round" stroke-miterlimit="10" stroke-width="1"/>
              <path id="Path_102" data-name="Path 102" d="M143.327,103.029a26.5,26.5,0,0,1,12.665-.921" fill="none" stroke="#fff" stroke-linecap="round" stroke-linejoin="round" stroke-miterlimit="10" stroke-width="1"/>
              <path id="Path_103" data-name="Path 103" d="M162.9,110.419a17.617,17.617,0,0,1-6.447-1.864c-7.829-3.685-13.356-3.915-13.356-3.915l-2.763.461-2.073-1.842" fill="none" stroke="#fff" stroke-linecap="round" stroke-linejoin="round" stroke-miterlimit="10" stroke-width="1"/>
              <path id="Path_104" data-name="Path 104" d="M166.585,107.634a1.561,1.561,0,0,1-.628,2.169" fill="none" stroke="#fff" stroke-linecap="round" stroke-linejoin="round" stroke-miterlimit="10" stroke-width="1"/>
            </g>
          </g>
          <path id="Path_105" data-name="Path 105" d="M191.36,409.185s-5.245-72.22-6.455-101.269-7.262-73.833-7.262-73.833l-18.106-2.208H144.51l-19.815,1.749s-3.358,7.109-4.519,20.968c-1.28,15.28-.4,38.091-1.035,53.324-1.211,29.049-6.455,101.269-6.455,101.269l-4.438,4.438v3.228l12.1,4.842,31.47-147.667.2-.336.2.336L183.7,421.693l12.1-4.842v-3.228Z" fill="#263238" stroke="#263238" stroke-linecap="round" stroke-linejoin="round" stroke-miterlimit="10" stroke-width="1"/>
          <rect id="Rectangle_220" data-name="Rectangle 220" width="9.078" height="4.677" transform="translate(147.361 234.016)" fill="#fff" stroke="#263238" stroke-linecap="round" stroke-linejoin="round" stroke-miterlimit="10" stroke-width="1"/>
          <g id="Group_93" data-name="Group 93">
            <path id="Path_106" data-name="Path 106" d="M108.248,416.85,95.337,427.744v2.421h23.8l1.21-8.473Z" fill="#c6ff00" stroke="#263238" stroke-linecap="round" stroke-linejoin="round" stroke-miterlimit="10" stroke-width="1"/>
            <path id="Path_107" data-name="Path 107" d="M119.141,430.165l.346-2.421H95.337v2.421Z" fill="#fff" stroke="#263238" stroke-linecap="round" stroke-linejoin="round" stroke-miterlimit="10" stroke-width="1"/>
          </g>
          <g id="Group_94" data-name="Group 94">
            <path id="Path_108" data-name="Path 108" d="M195.4,416.85l12.911,10.894v2.421H184.5l-1.211-8.473Z" fill="#c6ff00" stroke="#263238" stroke-linecap="round" stroke-linejoin="round" stroke-miterlimit="10" stroke-width="1"/>
            <path id="Path_109" data-name="Path 109" d="M184.5,430.165l-.346-2.421h24.15v2.421Z" fill="#fff" stroke="#263238" stroke-linecap="round" stroke-linejoin="round" stroke-miterlimit="10" stroke-width="1"/>
          </g>
        </g>
      </g>
      <path id="Path_110" data-name="Path 110" d="M195.226,208.483l-9.923,4.585a2.388,2.388,0,0,0-1.106,3.29l1.994,3.745a2.388,2.388,0,0,0,3.336.925l8.8-5.281a2.387,2.387,0,0,0,1.067-2.707l-.876-3.049A2.388,2.388,0,0,0,195.226,208.483Z" fill="#fff" stroke="#263238" stroke-linecap="round" stroke-linejoin="round" stroke-miterlimit="10" stroke-width="1"/>
      <path id="Path_111" data-name="Path 111" d="M105.6,210.877l-11.51-5.634s-5.015,3.868-4.51,8.182a8.85,8.85,0,0,0,3.764,6.288l13.725-.6Z" fill="#fff" stroke="#263238" stroke-linecap="round" stroke-linejoin="round" stroke-miterlimit="10" stroke-width="1"/>
      <path id="Path_112" data-name="Path 112" d="M127.484,242.577l-4.982-.048-16.14-25.18s-7.826-3.626-13.013,2.364l25.322,27.609,2.494,6.85,5.651-7.733,5.9,1.9,1.559-1.655Z" fill="#fff" stroke="#263238" stroke-linecap="round" stroke-linejoin="round" stroke-miterlimit="10" stroke-width="1"/>
    </g>
  </g>
</svg>
