<svg xmlns="http://www.w3.org/2000/svg" xmlns:xlink="http://www.w3.org/1999/xlink" width="252.072" height="97.726" viewBox="0 0 252.072 97.726">
  <defs>
    <radialGradient id="radial-gradient" cx="0.329" cy="0.656" r="0.784" gradientTransform="translate(0.658 1.312) rotate(180)" gradientUnits="objectBoundingBox">
      <stop offset="0" stop-color="#f1f2f2"/>
      <stop offset="0.316" stop-color="#dddfdf"/>
      <stop offset="0.958" stop-color="#abadaf"/>
      <stop offset="1" stop-color="#a7a9ac"/>
    </radialGradient>
    <clipPath id="clip-path">
      <path id="Path_191" data-name="Path 191" d="M642.636,254.059a43.5,43.5,0,1,1,19.217-58.445,43.5,43.5,0,0,1-19.217,58.445Z" transform="translate(-579.517 -171.72)"/>
    </clipPath>
    <linearGradient id="linear-gradient" x1="0.938" y1="2.007" x2="0.305" y2="0.295" gradientUnits="objectBoundingBox">
      <stop offset="0" stop-color="#0021a5"/>
      <stop offset="1" stop-color="#5c73d0"/>
    </linearGradient>
  </defs>
  <g id="Group_42" data-name="Group 42" transform="translate(-1795 473.709)">
    <g id="Group_90" data-name="Group 90" transform="translate(1795 -473.709)">
      <g id="Group_88" data-name="Group 88" transform="translate(0 0)">
        <path id="Path_182" data-name="Path 182" d="M607.863,185.015c-16.124,8.145-28.538,11.762-30.872,11.43-1.83-.85,11.4-9.921,27.519-18.067s30.96-11.907,30.872-11.43C632.687,171.185,623.988,176.874,607.863,185.015Z" transform="translate(-540.961 -100.443)" fill="#232323" fill-rule="evenodd"/>
        <path id="Path_183" data-name="Path 183" d="M618.422,212.35c-23.442,11.841-42.577,19.875-44.122,18.123-1.346-1.717,17.328-12.918,40.77-24.76s43.573-20.135,44.122-18.123C659.622,189.551,641.864,200.508,618.422,212.35Z" transform="translate(-562.814 -150.136)" fill="#242424" fill-rule="evenodd"/>
        <path id="Path_184" data-name="Path 184" d="M586.789,254.755c-.477-1.727,17.577-12.531,41.073-24.4s42.865-20.029,44.012-18.582C678.185,219.74,589.421,264.576,586.789,254.755Z" transform="translate(-585.321 -194.011)" fill="#313131" fill-rule="evenodd"/>
        <path id="Path_185" data-name="Path 185" d="M645.3,261.68c-18.778,9.486-35.479,16.523-35.151,14.9s14.072-9.967,32.85-19.453,33.734-15.546,35.151-14.9S664.08,252.193,645.3,261.68Z" transform="translate(-609.079 -237.841)" fill="#444" fill-rule="evenodd"/>
        <path id="Path_186" data-name="Path 186" d="M642.636,254.059a43.5,43.5,0,1,1,19.217-58.445,43.5,43.5,0,0,1-19.217,58.445Z" transform="translate(-574.156 -166.363)" fill-rule="evenodd" fill="url(#radial-gradient)"/>
        <g id="Group_80" data-name="Group 80" transform="translate(5.361 5.357)">
          <g id="Group_79" data-name="Group 79" transform="translate(0 0)" clip-path="url(#clip-path)">
            <path id="Path_187" data-name="Path 187" d="M631,151.979s-34.445,23.273-56.787,28.083c-19.057,4.1-14.1,10.4-14.1,10.4s42.592,10.408,56.973-.548,27.528-29.171,26.569-32.458S631,151.979,631,151.979Z" transform="translate(-541.539 -92.949)" fill="#f1f2f2" fill-rule="evenodd"/>
            <path id="Path_188" data-name="Path 188" d="M657.989,179.751s-11.008,12.639-39.362,26.755c-32.333,16.1-48.973,16.248-48.973,16.248s.822,10.545,11.915,8.491,79.022-26.021,81.35-34.923S657.989,179.751,657.989,179.751Z" transform="translate(-568.885 -150.578)" fill="#f1f2f2" fill-rule="evenodd"/>
            <path id="Path_189" data-name="Path 189" d="M674.239,208.269l-5.889-6.848s-13.465,13.7-36.84,25.2c-22.386,11.011-46.975,17.12-46.975,17.12l8.08,10.682s40.128-13.7,58.616-26.706S674.239,208.269,674.239,208.269Z" transform="translate(-591.024 -189.915)" fill="#f1f2f2" fill-rule="evenodd"/>
            <path id="Path_190" data-name="Path 190" d="M680.206,237.13l-5.889-1.918s-7.36,8.383-30.606,19.346c-19.53,9.211-32.255,9.962-32.255,9.962l4.382,9.313s40.675-6.3,52.727-19.311S680.206,237.13,680.206,237.13Z" transform="translate(-617.398 -234.937)" fill="#f1f2f2" fill-rule="evenodd"/>
          </g>
        </g>
        <path id="Path_192" data-name="Path 192" d="M645.5,260.345a48.655,48.655,0,0,0-22.69,23.93,160.811,160.811,0,0,0,55.417-27.994A48.648,48.648,0,0,0,645.5,260.345Z" transform="translate(-618.664 -255.084)" fill-rule="evenodd" fill="url(#linear-gradient)"/>
        <path id="Path_193" data-name="Path 193" d="M632.5,245.838a203.548,203.548,0,0,1-35.552,14.1,48.827,48.827,0,0,0-1,12.813c12.239-1.413,27.518-6.192,43.056-14.04s28.449-17.311,36.85-26.324a48.837,48.837,0,0,0-10.906-6.8A203.636,203.636,0,0,1,632.5,245.838Z" transform="translate(-595.878 -221.203)" fill-rule="evenodd" fill="url(#linear-gradient)"/>
        <path id="Path_194" data-name="Path 194" d="M624.036,225.706c-15.792,7.977-31.379,13.536-45.066,16.5a48.954,48.954,0,0,0,3.8,10.14q.163.323.33.643c12.861-.648,29.99-5.591,47.447-14.41s31.6-19.673,39.753-29.64q-.158-.324-.321-.647a49.065,49.065,0,0,0-5.917-9.075C653.552,208.478,639.828,217.726,624.036,225.706Z" transform="translate(-577.502 -181.454)" fill-rule="evenodd" fill="url(#linear-gradient)"/>
        <path id="Path_195" data-name="Path 195" d="M617.412,200.8a192.718,192.718,0,0,1-44.954,16.472,48.546,48.546,0,0,0,11.57,10.015c11.658-1.812,25.665-6.425,39.891-13.61s26.25-15.723,34.627-24.032a48.54,48.54,0,0,0-1.2-15.256A192.734,192.734,0,0,1,617.412,200.8Z" transform="translate(-560.97 -136.935)" fill-rule="evenodd" fill="url(#linear-gradient)"/>
        <path id="Path_196" data-name="Path 196" d="M607.142,181.64a208.707,208.707,0,0,1-30.321,12.521,48.854,48.854,0,0,0,58.392-29.5,208.7,208.7,0,0,1-28.071,16.979Z" transform="translate(-540.791 -98.159)" fill-rule="evenodd" fill="url(#linear-gradient)"/>
      </g>
    </g>
    <g id="Group_41" data-name="Group 41" transform="translate(-186 3)">
      <path id="Path_36" data-name="Path 36" d="M20.544.64a24.74,24.74,0,0,1-9.952-1.76,14.565,14.565,0,0,1-6.08-4.608A10.765,10.765,0,0,1,2.3-11.712a1.3,1.3,0,0,1,.384-.96,1.3,1.3,0,0,1,.96-.384h5.7a1.893,1.893,0,0,1,1.248.352,3.662,3.662,0,0,1,.736.864A6.479,6.479,0,0,0,12.8-9.44a8.12,8.12,0,0,0,2.976,1.952,12.748,12.748,0,0,0,4.768.768q4.608,0,6.88-1.536a4.779,4.779,0,0,0,2.272-4.16,3.852,3.852,0,0,0-1.216-2.976,11.337,11.337,0,0,0-3.744-2.048,65.654,65.654,0,0,0-6.688-1.952,37.259,37.259,0,0,1-8.032-2.784A12.193,12.193,0,0,1,5.152-26.3,11.363,11.363,0,0,1,3.52-32.64a11.212,11.212,0,0,1,2.016-6.592,13.522,13.522,0,0,1,5.76-4.544,21.867,21.867,0,0,1,8.928-1.664,22.236,22.236,0,0,1,7.36,1.12A16.236,16.236,0,0,1,32.9-41.376a13.94,13.94,0,0,1,3.232,3.9,9.182,9.182,0,0,1,1.184,4.064,1.4,1.4,0,0,1-.352.928,1.228,1.228,0,0,1-.992.416H30.016a2.272,2.272,0,0,1-1.024-.256,1.883,1.883,0,0,1-.832-.96,5.312,5.312,0,0,0-2.5-3.392,9.626,9.626,0,0,0-5.44-1.408,10.651,10.651,0,0,0-5.568,1.28,4.313,4.313,0,0,0-2.112,3.968A4.305,4.305,0,0,0,13.6-29.856a8.651,8.651,0,0,0,3.392,2.08,63.7,63.7,0,0,0,6.176,1.92,44.835,44.835,0,0,1,8.9,2.816,11.634,11.634,0,0,1,5.056,4.064,11.247,11.247,0,0,1,1.6,6.24,11.517,11.517,0,0,1-2.272,7.2A14.339,14.339,0,0,1,30.08-.96,26.114,26.114,0,0,1,20.544.64Zm39.488,0a18.694,18.694,0,0,1-8.608-1.792,12.423,12.423,0,0,1-5.312-5.056,17.519,17.519,0,0,1-2.08-7.616q-.064-1.152-.064-2.816t.064-2.816A16.886,16.886,0,0,1,46.176-27.1a12.889,12.889,0,0,1,5.376-5.024,18.383,18.383,0,0,1,8.48-1.792,18.383,18.383,0,0,1,8.48,1.792A12.889,12.889,0,0,1,73.888-27.1a16.886,16.886,0,0,1,2.144,7.648Q76.1-18.3,76.1-16.64t-.064,2.816a17.519,17.519,0,0,1-2.08,7.616A12.423,12.423,0,0,1,68.64-1.152,18.694,18.694,0,0,1,60.032.64Zm0-6.336A6.567,6.567,0,0,0,65.28-7.84a10.131,10.131,0,0,0,2.048-6.3q.064-.96.064-2.5t-.064-2.5a10.131,10.131,0,0,0-2.048-6.3,6.567,6.567,0,0,0-5.248-2.144,6.567,6.567,0,0,0-5.248,2.144,10.131,10.131,0,0,0-2.048,6.3q-.064.96-.064,2.5t.064,2.5a10.131,10.131,0,0,0,2.048,6.3A6.567,6.567,0,0,0,60.032-5.7ZM87.936,0a1.481,1.481,0,0,1-1.088-.448A1.481,1.481,0,0,1,86.4-1.536V-26.5H81.216a1.481,1.481,0,0,1-1.088-.448A1.559,1.559,0,0,1,79.68-28.1v-3.648a1.481,1.481,0,0,1,.448-1.088,1.481,1.481,0,0,1,1.088-.448H86.4V-35.9a12.964,12.964,0,0,1,1.408-6.368,8.927,8.927,0,0,1,4.16-3.808,16.569,16.569,0,0,1,6.976-1.28H103.3a1.454,1.454,0,0,1,1.12.448,1.541,1.541,0,0,1,.416,1.088v3.648a1.626,1.626,0,0,1-.416,1.152,1.454,1.454,0,0,1-1.12.448H99.2q-2.56,0-3.52,1.28a6.113,6.113,0,0,0-.96,3.712v2.3h7.936a1.454,1.454,0,0,1,1.12.448,1.541,1.541,0,0,1,.416,1.088V-28.1a1.626,1.626,0,0,1-.416,1.152,1.454,1.454,0,0,1-1.12.448H94.72v24.96a1.481,1.481,0,0,1-.448,1.088A1.481,1.481,0,0,1,93.184,0Zm36.416,0a14.071,14.071,0,0,1-6.464-1.344,8.552,8.552,0,0,1-3.9-4,15.214,15.214,0,0,1-1.28-6.624V-26.5h-5.056a1.481,1.481,0,0,1-1.088-.448,1.559,1.559,0,0,1-.448-1.152v-3.648a1.481,1.481,0,0,1,.448-1.088,1.481,1.481,0,0,1,1.088-.448H112.7V-43.9a1.541,1.541,0,0,1,.416-1.088,1.455,1.455,0,0,1,1.12-.448h5.184a1.481,1.481,0,0,1,1.088.448,1.481,1.481,0,0,1,.448,1.088V-33.28h8a1.481,1.481,0,0,1,1.088.448,1.481,1.481,0,0,1,.448,1.088V-28.1a1.559,1.559,0,0,1-.448,1.152,1.481,1.481,0,0,1-1.088.448h-8v13.888a7.663,7.663,0,0,0,.928,4.1A3.517,3.517,0,0,0,125.12-7.04h4.416a1.481,1.481,0,0,1,1.088.448,1.481,1.481,0,0,1,.448,1.088v3.968a1.481,1.481,0,0,1-.448,1.088A1.481,1.481,0,0,1,129.536,0Z" transform="translate(2102 -406)" fill="#5c73d0"/>
    </g>
  </g>
</svg>
