<svg xmlns="http://www.w3.org/2000/svg" xmlns:xlink="http://www.w3.org/1999/xlink" width="97.73" height="97.726" viewBox="0 0 97.73 97.726">
  <defs>
    <radialGradient id="radial-gradient" cx="0.329" cy="0.656" r="0.784" gradientTransform="translate(0.658 1.312) rotate(180)" gradientUnits="objectBoundingBox">
      <stop offset="0" stop-color="#f1f2f2"/>
      <stop offset="0.316" stop-color="#dddfdf"/>
      <stop offset="0.958" stop-color="#abadaf"/>
      <stop offset="1" stop-color="#a7a9ac"/>
    </radialGradient>
    <clipPath id="clip-path">
      <path id="Path_191" data-name="Path 191" d="M642.636,254.059a43.5,43.5,0,1,1,19.217-58.445,43.5,43.5,0,0,1-19.217,58.445Z" transform="translate(-579.517 -171.72)"/>
    </clipPath>
    <linearGradient id="linear-gradient" x1="0.938" y1="2.007" x2="0.305" y2="0.295" gradientUnits="objectBoundingBox">
      <stop offset="0" stop-color="#0021a5"/>
      <stop offset="1" stop-color="#5c73d0"/>
    </linearGradient>
  </defs>
  <g id="Group_42" data-name="Group 42" transform="translate(-1795 473.709)">
    <g id="Group_90" data-name="Group 90" transform="translate(1795 -473.709)">
      <g id="Group_88" data-name="Group 88" transform="translate(0 0)">
        <path id="Path_182" data-name="Path 182" d="M607.863,185.015c-16.124,8.145-28.538,11.762-30.872,11.43-1.83-.85,11.4-9.921,27.519-18.067s30.96-11.907,30.872-11.43C632.687,171.185,623.988,176.874,607.863,185.015Z" transform="translate(-540.961 -100.443)" fill="#232323" fill-rule="evenodd"/>
        <path id="Path_183" data-name="Path 183" d="M618.422,212.35c-23.442,11.841-42.577,19.875-44.122,18.123-1.346-1.717,17.328-12.918,40.77-24.76s43.573-20.135,44.122-18.123C659.622,189.551,641.864,200.508,618.422,212.35Z" transform="translate(-562.814 -150.136)" fill="#242424" fill-rule="evenodd"/>
        <path id="Path_184" data-name="Path 184" d="M586.789,254.755c-.477-1.727,17.577-12.531,41.073-24.4s42.865-20.029,44.012-18.582C678.185,219.74,589.421,264.576,586.789,254.755Z" transform="translate(-585.321 -194.011)" fill="#313131" fill-rule="evenodd"/>
        <path id="Path_185" data-name="Path 185" d="M645.3,261.68c-18.778,9.486-35.479,16.523-35.151,14.9s14.072-9.967,32.85-19.453,33.734-15.546,35.151-14.9S664.08,252.193,645.3,261.68Z" transform="translate(-609.079 -237.841)" fill="#444" fill-rule="evenodd"/>
        <path id="Path_186" data-name="Path 186" d="M642.636,254.059a43.5,43.5,0,1,1,19.217-58.445,43.5,43.5,0,0,1-19.217,58.445Z" transform="translate(-574.156 -166.363)" fill-rule="evenodd" fill="url(#radial-gradient)"/>
        <g id="Group_80" data-name="Group 80" transform="translate(5.361 5.357)">
          <g id="Group_79" data-name="Group 79" transform="translate(0 0)" clip-path="url(#clip-path)">
            <path id="Path_187" data-name="Path 187" d="M631,151.979s-34.445,23.273-56.787,28.083c-19.057,4.1-14.1,10.4-14.1,10.4s42.592,10.408,56.973-.548,27.528-29.171,26.569-32.458S631,151.979,631,151.979Z" transform="translate(-541.539 -92.949)" fill="#f1f2f2" fill-rule="evenodd"/>
            <path id="Path_188" data-name="Path 188" d="M657.989,179.751s-11.008,12.639-39.362,26.755c-32.333,16.1-48.973,16.248-48.973,16.248s.822,10.545,11.915,8.491,79.022-26.021,81.35-34.923S657.989,179.751,657.989,179.751Z" transform="translate(-568.885 -150.578)" fill="#f1f2f2" fill-rule="evenodd"/>
            <path id="Path_189" data-name="Path 189" d="M674.239,208.269l-5.889-6.848s-13.465,13.7-36.84,25.2c-22.386,11.011-46.975,17.12-46.975,17.12l8.08,10.682s40.128-13.7,58.616-26.706S674.239,208.269,674.239,208.269Z" transform="translate(-591.024 -189.915)" fill="#f1f2f2" fill-rule="evenodd"/>
            <path id="Path_190" data-name="Path 190" d="M680.206,237.13l-5.889-1.918s-7.36,8.383-30.606,19.346c-19.53,9.211-32.255,9.962-32.255,9.962l4.382,9.313s40.675-6.3,52.727-19.311S680.206,237.13,680.206,237.13Z" transform="translate(-617.398 -234.937)" fill="#f1f2f2" fill-rule="evenodd"/>
          </g>
        </g>
        <path id="Path_192" data-name="Path 192" d="M645.5,260.345a48.655,48.655,0,0,0-22.69,23.93,160.811,160.811,0,0,0,55.417-27.994A48.648,48.648,0,0,0,645.5,260.345Z" transform="translate(-618.664 -255.084)" fill-rule="evenodd" fill="url(#linear-gradient)"/>
        <path id="Path_193" data-name="Path 193" d="M632.5,245.838a203.548,203.548,0,0,1-35.552,14.1,48.827,48.827,0,0,0-1,12.813c12.239-1.413,27.518-6.192,43.056-14.04s28.449-17.311,36.85-26.324a48.837,48.837,0,0,0-10.906-6.8A203.636,203.636,0,0,1,632.5,245.838Z" transform="translate(-595.878 -221.203)" fill-rule="evenodd" fill="url(#linear-gradient)"/>
        <path id="Path_194" data-name="Path 194" d="M624.036,225.706c-15.792,7.977-31.379,13.536-45.066,16.5a48.954,48.954,0,0,0,3.8,10.14q.163.323.33.643c12.861-.648,29.99-5.591,47.447-14.41s31.6-19.673,39.753-29.64q-.158-.324-.321-.647a49.065,49.065,0,0,0-5.917-9.075C653.552,208.478,639.828,217.726,624.036,225.706Z" transform="translate(-577.502 -181.454)" fill-rule="evenodd" fill="url(#linear-gradient)"/>
        <path id="Path_195" data-name="Path 195" d="M617.412,200.8a192.718,192.718,0,0,1-44.954,16.472,48.546,48.546,0,0,0,11.57,10.015c11.658-1.812,25.665-6.425,39.891-13.61s26.25-15.723,34.627-24.032a48.54,48.54,0,0,0-1.2-15.256A192.734,192.734,0,0,1,617.412,200.8Z" transform="translate(-560.97 -136.935)" fill-rule="evenodd" fill="url(#linear-gradient)"/>
        <path id="Path_196" data-name="Path 196" d="M607.142,181.64a208.707,208.707,0,0,1-30.321,12.521,48.854,48.854,0,0,0,58.392-29.5,208.7,208.7,0,0,1-28.071,16.979Z" transform="translate(-540.791 -98.159)" fill-rule="evenodd" fill="url(#linear-gradient)"/>
      </g>
    </g>
  </g>
</svg>
