<svg xmlns="http://www.w3.org/2000/svg" width="706.989" height="385.313" viewBox="0 0 706.989 385.313">
  <g id="_4958044_2594506" data-name="4958044_2594506" transform="translate(-153.162 -72.754)">
    <g id="OBJECTS" transform="translate(153.162 72.754)">
      <g id="Group_81" data-name="Group 81">
        <g id="Group_59" data-name="Group 59" transform="translate(0 86.589)" opacity="0.52">
          <path id="Path_70" data-name="Path 70" d="M453.371,195.661H178.121a19.4,19.4,0,0,1-19.338-19.338h0a19.4,19.4,0,0,1,19.338-19.339H453.371a19.4,19.4,0,0,1,19.339,19.339h0A19.4,19.4,0,0,1,453.371,195.661Z" transform="translate(-149.59 -105.824)" fill="#737278"/>
          <path id="Path_71" data-name="Path 71" d="M668.686,174.261H445.5a15.727,15.727,0,0,1-15.68-15.68h0A15.727,15.727,0,0,1,445.5,142.9H668.686a15.727,15.727,0,0,1,15.68,15.68h0A15.727,15.727,0,0,1,668.686,174.261Z" transform="translate(22.623 -114.772)" fill="#737278"/>
          <path id="Path_72" data-name="Path 72" d="M598.693,145.038H461.068a9.7,9.7,0,0,1-9.668-9.668h0a9.7,9.7,0,0,1,9.668-9.668H598.693a9.7,9.7,0,0,1,9.668,9.668h0A9.7,9.7,0,0,1,598.693,145.038Z" transform="translate(36.336 -125.701)" fill="#737278"/>
          <path id="Path_73" data-name="Path 73" d="M595.042,233.107H457.417a9.7,9.7,0,0,1-9.668-9.668h0a9.7,9.7,0,0,1,9.668-9.668H595.042a9.7,9.7,0,0,1,9.668,9.668h0A9.7,9.7,0,0,1,595.042,233.107Z" transform="translate(34.016 -69.743)" fill="#737278"/>
          <path id="Path_74" data-name="Path 74" d="M585.687,278.947H448.062a9.7,9.7,0,0,1-9.668-9.668h0a9.7,9.7,0,0,1,9.668-9.668H585.687a9.7,9.7,0,0,1,9.668,9.668h0A9.7,9.7,0,0,1,585.687,278.947Z" transform="translate(28.072 -40.616)" fill="#737278"/>
          <path id="Path_75" data-name="Path 75" d="M342.985,156.326H205.36a9.7,9.7,0,0,1-9.668-9.668h0a9.7,9.7,0,0,1,9.668-9.668H342.985a9.7,9.7,0,0,1,9.668,9.668h0A9.7,9.7,0,0,1,342.985,156.326Z" transform="translate(-126.139 -118.529)" fill="#737278"/>
          <path id="Path_76" data-name="Path 76" d="M413.5,227.609H202.95A16.158,16.158,0,0,1,186.838,211.5h0a16.159,16.159,0,0,1,16.112-16.112H413.5A16.159,16.159,0,0,1,429.612,211.5h0A16.158,16.158,0,0,1,413.5,227.609Z" transform="translate(-131.765 -81.424)" fill="#737278"/>
          <path id="Path_77" data-name="Path 77" d="M379.824,243.748H169.274a16.159,16.159,0,0,1-16.112-16.112h0a16.159,16.159,0,0,1,16.112-16.112h210.55a16.159,16.159,0,0,1,16.112,16.112h0A16.157,16.157,0,0,1,379.824,243.748Z" transform="translate(-153.162 -71.17)" fill="#737278"/>
          <path id="Path_78" data-name="Path 78" d="M633.714,263.178H423.164a16.159,16.159,0,0,1-16.112-16.112h0a16.159,16.159,0,0,1,16.112-16.112h210.55a16.159,16.159,0,0,1,16.112,16.112h0A16.158,16.158,0,0,1,633.714,263.178Z" transform="translate(8.157 -58.824)" fill="#737278"/>
          <path id="Path_79" data-name="Path 79" d="M636.112,221.355H425.562a16.159,16.159,0,0,1-16.112-16.112h0a16.159,16.159,0,0,1,16.112-16.112h210.55a16.16,16.16,0,0,1,16.112,16.112h0A16.157,16.157,0,0,1,636.112,221.355Z" transform="translate(9.681 -85.398)" fill="#737278"/>
          <path id="Path_80" data-name="Path 80" d="M411.133,280.9H200.583a16.159,16.159,0,0,1-16.112-16.112h0a16.159,16.159,0,0,1,16.112-16.112h210.55a16.159,16.159,0,0,1,16.112,16.112h0A16.159,16.159,0,0,1,411.133,280.9Z" transform="translate(-133.269 -47.561)" fill="#737278"/>
        </g>
        <g id="Group_77" data-name="Group 77" transform="translate(113.815)">
          <g id="Group_60" data-name="Group 60" transform="translate(46.669 130.686)">
            <line id="Line_9" data-name="Line 9" x2="30.433" transform="translate(0 55.952)" fill="none" stroke="#e0e0e2" stroke-linecap="round" stroke-linejoin="round" stroke-miterlimit="10" stroke-width="2.001"/>
            <line id="Line_10" data-name="Line 10" x2="30.433" transform="translate(5.371 64.791)" fill="none" stroke="#e0e0e2" stroke-linecap="round" stroke-linejoin="round" stroke-miterlimit="10" stroke-width="2.001"/>
            <line id="Line_11" data-name="Line 11" x2="30.433" transform="translate(118.736 27.161)" fill="none" stroke="#e0e0e2" stroke-linecap="round" stroke-linejoin="round" stroke-miterlimit="10" stroke-width="2.001"/>
            <line id="Line_12" data-name="Line 12" x2="30.433" transform="translate(113.032 38.026)" fill="none" stroke="#e0e0e2" stroke-linecap="round" stroke-linejoin="round" stroke-miterlimit="10" stroke-width="2.001"/>
            <line id="Line_13" data-name="Line 13" x2="30.433" transform="translate(156.348 142.325)" fill="none" stroke="#e0e0e2" stroke-linecap="round" stroke-linejoin="round" stroke-miterlimit="10" stroke-width="2.001"/>
            <line id="Line_14" data-name="Line 14" x2="30.433" transform="translate(212.701 136.349)" fill="none" stroke="#e0e0e2" stroke-linecap="round" stroke-linejoin="round" stroke-miterlimit="10" stroke-width="2.001"/>
            <line id="Line_15" data-name="Line 15" x2="30.433" transform="translate(304.251 189.393)" fill="none" stroke="#e0e0e2" stroke-linecap="round" stroke-linejoin="round" stroke-miterlimit="10" stroke-width="2.001"/>
            <line id="Line_16" data-name="Line 16" x2="30.433" transform="translate(306.961 198.288)" fill="none" stroke="#e0e0e2" stroke-linecap="round" stroke-linejoin="round" stroke-miterlimit="10" stroke-width="2.001"/>
            <line id="Line_17" data-name="Line 17" x2="30.433" transform="translate(391.169 15.211)" fill="none" stroke="#e0e0e2" stroke-linecap="round" stroke-linejoin="round" stroke-miterlimit="10" stroke-width="2.001"/>
            <line id="Line_18" data-name="Line 18" x2="30.433" transform="translate(228.703)" fill="none" stroke="#e0e0e2" stroke-linecap="round" stroke-linejoin="round" stroke-miterlimit="10" stroke-width="2.001"/>
            <line id="Line_19" data-name="Line 19" x2="30.433" transform="translate(224.385 7.605)" fill="none" stroke="#e0e0e2" stroke-linecap="round" stroke-linejoin="round" stroke-miterlimit="10" stroke-width="2.001"/>
            <line id="Line_20" data-name="Line 20" x2="30.433" transform="translate(378.776 21.729)" fill="none" stroke="#e0e0e2" stroke-linecap="round" stroke-linejoin="round" stroke-miterlimit="10" stroke-width="2.001"/>
            <line id="Line_21" data-name="Line 21" x2="30.433" transform="translate(147.542 149.386)" fill="none" stroke="#e0e0e2" stroke-linecap="round" stroke-linejoin="round" stroke-miterlimit="10" stroke-width="2.001"/>
          </g>
          <g id="Group_61" data-name="Group 61" transform="translate(38.364)">
            <text id="WEB" transform="translate(0 208)" fill="#e0e0e2" font-size="193" font-family="SegoeUI, Segoe UI"><tspan x="0" y="0">WEB</tspan></text>
          </g>
          <text id="SITE" transform="translate(40.645 343.313)" fill="#e0e0e2" font-size="166" font-family="SegoeUI, Segoe UI"><tspan x="0" y="0">SITE</tspan></text>
          <g id="Group_69" data-name="Group 69" transform="translate(0 95.376)">
            <g id="Group_62" data-name="Group 62" transform="translate(0 185.769)">
              <path id="Path_81" data-name="Path 81" d="M251.594,247.131l-24.366,61.083h56l-24.366-61.083A3.914,3.914,0,0,0,251.594,247.131Z" transform="translate(-219.916 -244.667)" fill="#ffca58" stroke="#323139" stroke-miterlimit="10" stroke-width="2.001"/>
              <path id="Path_82" data-name="Path 82" d="M230.124,279.086l-2.9,7.26h56l-2.9-7.26Z" transform="translate(-219.916 -222.798)" fill="#323139" stroke="#323139" stroke-miterlimit="10" stroke-width="2.001" opacity="0.23"/>
              <line id="Line_22" data-name="Line 22" x2="18.442" y2="45.322" transform="translate(36.523 9.148)" fill="none" stroke="#ffeaa6" stroke-linecap="round" stroke-linejoin="round" stroke-miterlimit="10" stroke-width="2.001"/>
              <path id="Path_83" data-name="Path 83" d="M290.117,288.672H226.026a3.279,3.279,0,0,1-3.269-3.269h0a3.279,3.279,0,0,1,3.269-3.269h64.091a3.279,3.279,0,0,1,3.269,3.269h0A3.28,3.28,0,0,1,290.117,288.672Z" transform="translate(-222.757 -220.861)" fill="#ffa166" stroke="#323139" stroke-miterlimit="10" stroke-width="2.001"/>
              <path id="Path_84" data-name="Path 84" d="M290.117,284.768H226.026a3.266,3.266,0,0,1-2.813-1.635,3.224,3.224,0,0,0-.456,1.635,3.279,3.279,0,0,0,3.269,3.269h64.091a3.279,3.279,0,0,0,3.269-3.269,3.231,3.231,0,0,0-.458-1.635A3.262,3.262,0,0,1,290.117,284.768Z" transform="translate(-222.757 -220.226)" fill="#323139" opacity="0.23"/>
              <path id="Path_85" data-name="Path 85" d="M231.356,280.34h42.5L266.5,261.9H238.714Z" transform="translate(-217.293 -233.719)" fill="#323139" stroke="#323139" stroke-miterlimit="10" stroke-width="2.001"/>
              <line id="Line_23" data-name="Line 23" x2="5.603" y2="13.767" transform="translate(45.15 30.351)" fill="none" stroke="#76757b" stroke-linecap="round" stroke-linejoin="round" stroke-miterlimit="10" stroke-width="2.001"/>
            </g>
            <g id="Group_67" data-name="Group 67" transform="translate(206.13 199.184)">
              <g id="Group_65" data-name="Group 65" transform="translate(16.658 22.799)">
                <g id="Group_63" data-name="Group 63">
                  <rect id="Rectangle_10" data-name="Rectangle 10" width="4.604" height="36.348" transform="translate(3.482)" fill="#fff" stroke="#323139" stroke-linecap="round" stroke-linejoin="round" stroke-miterlimit="10" stroke-width="2.001"/>
                  <rect id="Rectangle_11" data-name="Rectangle 11" width="4.604" height="11.09" transform="translate(3.482)" fill="#323139" stroke="#323139" stroke-miterlimit="10" stroke-width="2.001" opacity="0.57"/>
                  <line id="Line_24" data-name="Line 24" x2="11.569" transform="translate(0 36.348)" fill="none" stroke="#323139" stroke-linecap="round" stroke-linejoin="round" stroke-miterlimit="10" stroke-width="2.001"/>
                </g>
                <g id="Group_64" data-name="Group 64" transform="translate(65.337)">
                  <rect id="Rectangle_12" data-name="Rectangle 12" width="4.604" height="36.348" transform="translate(3.483)" fill="#fff" stroke="#323139" stroke-linecap="round" stroke-linejoin="round" stroke-miterlimit="10" stroke-width="2.001"/>
                  <rect id="Rectangle_13" data-name="Rectangle 13" width="4.604" height="11.09" transform="translate(3.483)" fill="#323139" stroke="#323139" stroke-miterlimit="10" stroke-width="2.001" opacity="0.57"/>
                  <line id="Line_25" data-name="Line 25" x2="11.569" transform="translate(0 36.348)" fill="none" stroke="#323139" stroke-linecap="round" stroke-linejoin="round" stroke-miterlimit="10" stroke-width="2.001"/>
                </g>
              </g>
              <path id="Path_86" data-name="Path 86" d="M456.024,277.084H351.8a3,3,0,0,1-3-3V255.866a3,3,0,0,1,3-3H456.024a3,3,0,0,1,3,3v18.222A3,3,0,0,1,456.024,277.084Z" transform="translate(-348.8 -252.87)" fill="#ffa166" stroke="#323139" stroke-miterlimit="10" stroke-width="2.001"/>
              <path id="Path_87" data-name="Path 87" d="M456.024,261.437H351.8a3,3,0,0,1-3-3v12.107a3,3,0,0,0,3,3H456.024a3,3,0,0,0,3-3V258.441A3,3,0,0,1,456.024,261.437Z" transform="translate(-348.8 -249.33)" fill="#323139" stroke="#323139" stroke-miterlimit="10" stroke-width="2.001" opacity="0.23"/>
              <g id="Group_66" data-name="Group 66" transform="translate(5.492)">
                <path id="Path_88" data-name="Path 88" d="M352.158,277.084h6.651l8.183-24.214h-6.649Z" transform="translate(-352.158 -252.87)" fill="#323139" stroke="#323139" stroke-miterlimit="10" stroke-width="2.001"/>
                <path id="Path_89" data-name="Path 89" d="M362.48,277.084h6.651l8.183-24.214h-6.649Z" transform="translate(-345.599 -252.87)" fill="#323139" stroke="#323139" stroke-miterlimit="10" stroke-width="2.001"/>
                <path id="Path_90" data-name="Path 90" d="M372.8,277.084h6.651l8.183-24.214h-6.649Z" transform="translate(-339.041 -252.87)" fill="#323139" stroke="#323139" stroke-miterlimit="10" stroke-width="2.001"/>
                <path id="Path_91" data-name="Path 91" d="M383.125,277.084h6.65l8.185-24.214h-6.651Z" transform="translate(-332.482 -252.87)" fill="#323139" stroke="#323139" stroke-miterlimit="10" stroke-width="2.001"/>
                <path id="Path_92" data-name="Path 92" d="M393.447,277.084h6.65l8.185-24.214H401.63Z" transform="translate(-325.923 -252.87)" fill="#323139" stroke="#323139" stroke-miterlimit="10" stroke-width="2.001"/>
                <path id="Path_93" data-name="Path 93" d="M403.769,277.084h6.649L418.6,252.87h-6.651Z" transform="translate(-319.365 -252.87)" fill="#323139" stroke="#323139" stroke-miterlimit="10" stroke-width="2.001"/>
              </g>
              <line id="Line_26" data-name="Line 26" x2="96.158" transform="translate(7.032 4.349)" fill="none" stroke="#ffeaa6" stroke-linecap="round" stroke-linejoin="round" stroke-miterlimit="10" stroke-width="2.001" opacity="0.42"/>
            </g>
            <g id="Group_68" data-name="Group 68" transform="translate(35.315 195.982)">
              <path id="Path_94" data-name="Path 94" d="M273.188,253.376,248.822,314.46h56l-24.366-61.083A3.914,3.914,0,0,0,273.188,253.376Z" transform="translate(-241.51 -250.912)" fill="#ffca58" stroke="#323139" stroke-miterlimit="10" stroke-width="2.001"/>
              <path id="Path_95" data-name="Path 95" d="M251.718,285.331l-2.9,7.258h56l-2.9-7.258Z" transform="translate(-241.51 -229.043)" fill="#323139" stroke="#323139" stroke-miterlimit="10" stroke-width="2.001" opacity="0.23"/>
              <line id="Line_27" data-name="Line 27" x2="18.442" y2="45.322" transform="translate(36.523 9.148)" fill="none" stroke="#ffeaa6" stroke-linecap="round" stroke-linejoin="round" stroke-miterlimit="10" stroke-width="2.001"/>
              <path id="Path_96" data-name="Path 96" d="M311.711,294.917H247.62a3.279,3.279,0,0,1-3.269-3.269h0a3.28,3.28,0,0,1,3.269-3.269h64.091a3.279,3.279,0,0,1,3.269,3.269h0A3.28,3.28,0,0,1,311.711,294.917Z" transform="translate(-244.351 -227.106)" fill="#ffa166" stroke="#323139" stroke-miterlimit="10" stroke-width="2.001"/>
              <path id="Path_97" data-name="Path 97" d="M311.711,291.012H247.62a3.266,3.266,0,0,1-2.813-1.635,3.225,3.225,0,0,0-.456,1.635,3.279,3.279,0,0,0,3.269,3.269h64.091a3.279,3.279,0,0,0,3.269-3.269,3.229,3.229,0,0,0-.456-1.635A3.263,3.263,0,0,1,311.711,291.012Z" transform="translate(-244.351 -226.472)" fill="#323139" opacity="0.23"/>
              <path id="Path_98" data-name="Path 98" d="M252.951,286.585h42.5l-7.358-18.442H260.307Z" transform="translate(-238.887 -239.964)" fill="#323139" stroke="#323139" stroke-miterlimit="10" stroke-width="2.001"/>
              <line id="Line_28" data-name="Line 28" x2="5.601" y2="13.768" transform="translate(45.151 30.349)" fill="none" stroke="#76757b" stroke-linecap="round" stroke-linejoin="round" stroke-miterlimit="10" stroke-width="2.001"/>
            </g>
            <line id="Line_29" data-name="Line 29" x2="38.024" transform="translate(368.848 254.218)" fill="none" stroke="#323139" stroke-linecap="round" stroke-linejoin="round" stroke-miterlimit="10" stroke-width="2.001"/>
            <line id="Line_30" data-name="Line 30" x2="8.707" transform="translate(392.749 260.438)" fill="none" stroke="#323139" stroke-linecap="round" stroke-linejoin="round" stroke-miterlimit="10" stroke-width="2.001"/>
            <line id="Line_31" data-name="Line 31" x2="4.604" transform="translate(226.269 265.563)" fill="none" stroke="#323139" stroke-linecap="round" stroke-linejoin="round" stroke-miterlimit="10" stroke-width="2.001"/>
            <line id="Line_32" data-name="Line 32" x2="24.411" transform="translate(186.868 255.638)" fill="none" stroke="#323139" stroke-linecap="round" stroke-linejoin="round" stroke-miterlimit="10" stroke-width="2.001"/>
            <line id="Line_33" data-name="Line 33" x2="14.74" transform="translate(309.319 251.561)" fill="none" stroke="#323139" stroke-linecap="round" stroke-linejoin="round" stroke-miterlimit="10" stroke-width="2.001"/>
            <line id="Line_34" data-name="Line 34" x1="8.692" transform="translate(166.226 255.638)" fill="none" stroke="#323139" stroke-linecap="round" stroke-linejoin="round" stroke-miterlimit="10" stroke-width="2.001"/>
            <line id="Line_35" data-name="Line 35" x2="35.316" transform="translate(56.563 271.975)" fill="none" stroke="#323139" stroke-linecap="round" stroke-linejoin="round" stroke-miterlimit="10" stroke-width="2.001"/>
            <line id="Line_36" data-name="Line 36" x2="8.205" transform="translate(8.591 263.793)" fill="none" stroke="#323139" stroke-linecap="round" stroke-linejoin="round" stroke-miterlimit="10" stroke-width="2.001"/>
            <line id="Line_37" data-name="Line 37" x2="29.398" transform="translate(14.907 171)" fill="none" stroke="#323139" stroke-linecap="round" stroke-linejoin="round" stroke-miterlimit="10" stroke-width="2.001"/>
            <line id="Line_38" data-name="Line 38" x2="28.791" transform="translate(166.226 207.404)" fill="none" stroke="#323139" stroke-linecap="round" stroke-linejoin="round" stroke-miterlimit="10" stroke-width="2.001"/>
            <line id="Line_39" data-name="Line 39" x2="10.049" transform="translate(170.571 196.646)" fill="none" stroke="#323139" stroke-linecap="round" stroke-linejoin="round" stroke-miterlimit="10" stroke-width="2.001"/>
            <line id="Line_40" data-name="Line 40" x1="31.046" transform="translate(303.442 188.003)" fill="none" stroke="#323139" stroke-linecap="round" stroke-linejoin="round" stroke-miterlimit="10" stroke-width="2.001"/>
            <line id="Line_41" data-name="Line 41" x1="15.523" transform="translate(318.965 179.312)" fill="none" stroke="#323139" stroke-linecap="round" stroke-linejoin="round" stroke-miterlimit="10" stroke-width="2.001"/>
            <line id="Line_42" data-name="Line 42" x2="17.927" transform="translate(350.921 171.659)" fill="none" stroke="#323139" stroke-linecap="round" stroke-linejoin="round" stroke-miterlimit="10" stroke-width="2.001"/>
            <line id="Line_43" data-name="Line 43" x2="8.692" transform="translate(354.723 180.894)" fill="none" stroke="#323139" stroke-linecap="round" stroke-linejoin="round" stroke-miterlimit="10" stroke-width="2.001"/>
            <line id="Line_44" data-name="Line 44" x2="41.828" transform="translate(321.586 69.534)" fill="none" stroke="#323139" stroke-linecap="round" stroke-linejoin="round" stroke-miterlimit="10" stroke-width="2.001"/>
            <line id="Line_45" data-name="Line 45" x2="16.025" transform="translate(326.476 77.138)" fill="none" stroke="#323139" stroke-linecap="round" stroke-linejoin="round" stroke-miterlimit="10" stroke-width="2.001"/>
            <line id="Line_46" data-name="Line 46" x2="22.673" transform="translate(199.074 33.138)" fill="none" stroke="#323139" stroke-linecap="round" stroke-linejoin="round" stroke-miterlimit="10" stroke-width="2.001"/>
            <line id="Line_47" data-name="Line 47" x2="6.592" transform="translate(206.131 42.914)" fill="none" stroke="#323139" stroke-linecap="round" stroke-linejoin="round" stroke-miterlimit="10" stroke-width="2.001"/>
            <line id="Line_48" data-name="Line 48" x2="20.642" transform="translate(136.892)" fill="none" stroke="#323139" stroke-linecap="round" stroke-linejoin="round" stroke-miterlimit="10" stroke-width="2.001"/>
            <line id="Line_49" data-name="Line 49" x2="4.888" transform="translate(142.325 9.778)" fill="none" stroke="#323139" stroke-linecap="round" stroke-linejoin="round" stroke-miterlimit="10" stroke-width="2.001"/>
            <line id="Line_50" data-name="Line 50" x2="27.676" transform="translate(33.213 48.347)" fill="none" stroke="#323139" stroke-linecap="round" stroke-linejoin="round" stroke-miterlimit="10" stroke-width="2.001"/>
            <line id="Line_51" data-name="Line 51" x2="12.048" transform="translate(40.644 57.039)" fill="none" stroke="#323139" stroke-linecap="round" stroke-linejoin="round" stroke-miterlimit="10" stroke-width="2.001"/>
            <line id="Line_52" data-name="Line 52" x1="22.822" transform="translate(426.428 2.716)" fill="none" stroke="#323139" stroke-linecap="round" stroke-linejoin="round" stroke-miterlimit="10" stroke-width="2.001"/>
            <line id="Line_53" data-name="Line 53" x1="12.21" transform="translate(433.341 9.778)" fill="none" stroke="#323139" stroke-linecap="round" stroke-linejoin="round" stroke-miterlimit="10" stroke-width="2.001"/>
            <line id="Line_54" data-name="Line 54" x2="4.604" transform="translate(291.608 265.563)" fill="none" stroke="#323139" stroke-linecap="round" stroke-linejoin="round" stroke-miterlimit="10" stroke-width="2.001"/>
            <line id="Line_55" data-name="Line 55" x2="28.948" transform="translate(31.704 160.604)" fill="none" stroke="#323139" stroke-linecap="round" stroke-linejoin="round" stroke-miterlimit="10" stroke-width="2.001"/>
            <line id="Line_56" data-name="Line 56" x2="29.396" transform="translate(414.967 193.202)" fill="none" stroke="#323139" stroke-linecap="round" stroke-linejoin="round" stroke-miterlimit="10" stroke-width="2.001"/>
            <line id="Line_57" data-name="Line 57" x2="28.948" transform="translate(426.335 185.635)" fill="none" stroke="#323139" stroke-linecap="round" stroke-linejoin="round" stroke-miterlimit="10" stroke-width="2.001"/>
          </g>
          <g id="Group_75" data-name="Group 75" transform="translate(416.772 139.417)">
            <g id="Group_70" data-name="Group 70" transform="translate(39.587 89.478)">
              <rect id="Rectangle_14" data-name="Rectangle 14" width="5.438" height="123.063" transform="translate(4.113)" fill="#fff" stroke="#323139" stroke-linecap="round" stroke-linejoin="round" stroke-miterlimit="10" stroke-width="2.001"/>
              <rect id="Rectangle_15" data-name="Rectangle 15" width="5.438" height="13.099" transform="translate(4.113)" fill="#323139" stroke="#323139" stroke-miterlimit="10" stroke-width="2.001" opacity="0.57"/>
              <line id="Line_58" data-name="Line 58" x2="13.665" transform="translate(0 123.063)" fill="none" stroke="#323139" stroke-linecap="round" stroke-linejoin="round" stroke-miterlimit="10" stroke-width="2.001"/>
            </g>
            <g id="Group_74" data-name="Group 74">
              <g id="Group_71" data-name="Group 71">
                <path id="Path_99" data-name="Path 99" d="M566.892,213l-34.3,34.3a12.122,12.122,0,0,1-17.144,0l-34.3-34.3a12.122,12.122,0,0,1,0-17.144l34.3-34.3a12.122,12.122,0,0,1,17.144,0l34.3,34.3A12.122,12.122,0,0,1,566.892,213Z" transform="translate(-477.603 -158.004)" fill="#ffa166" stroke="#323139" stroke-miterlimit="10" stroke-width="2.001"/>
              </g>
              <g id="Group_73" data-name="Group 73" transform="translate(10.903 10.903)">
                <g id="Group_72" data-name="Group 72">
                  <path id="Path_100" data-name="Path 100" d="M552.585,206.745l-26.241,26.241a9.273,9.273,0,0,1-13.116,0l-26.241-26.241a9.273,9.273,0,0,1,0-13.116l26.241-26.241a9.273,9.273,0,0,1,13.116,0l26.241,26.241A9.273,9.273,0,0,1,552.585,206.745Z" transform="translate(-484.27 -164.671)" fill="#ffa166"/>
                  <path id="Path_101" data-name="Path 101" d="M552.585,206.745l-26.241,26.241a9.273,9.273,0,0,1-13.116,0l-26.241-26.241a9.273,9.273,0,0,1,0-13.116l26.241-26.241a9.273,9.273,0,0,1,13.116,0l26.241,26.241A9.273,9.273,0,0,1,552.585,206.745Z" transform="translate(-484.27 -164.671)" fill="none" stroke="#323139" stroke-linecap="round" stroke-linejoin="round" stroke-width="2.001" stroke-dasharray="4.595 3.829"/>
                </g>
              </g>
              <path id="Path_102" data-name="Path 102" d="M566.882,182.18l-34.3,34.3a12.122,12.122,0,0,1-17.144,0l-34.3-34.3c-.2-.2-.342-.432-.525-.641a12.086,12.086,0,0,0,.525,16.5l34.3,34.3a12.122,12.122,0,0,0,17.144,0l34.3-34.3a12.086,12.086,0,0,0,.525-16.5C567.224,181.748,567.082,181.981,566.882,182.18Z" transform="translate(-477.593 -143.05)" fill="#323139" stroke="#323139" stroke-miterlimit="10" stroke-width="2.001" opacity="0.23"/>
              <text id="_" data-name="!" transform="translate(37.109 62.468)" fill="#323139" font-size="45" font-family="SegoeUI, Segoe UI"><tspan x="0" y="0">!</tspan></text>
            </g>
          </g>
          <g id="Group_76" data-name="Group 76" transform="translate(201.287 39.613)">
            <path id="Path_103" data-name="Path 103" d="M407.384,121.268a29.841,29.841,0,0,0-57.935,14.3Z" transform="translate(-344.031 -95.676)" fill="#ffca58" stroke="#323139" stroke-miterlimit="10" stroke-width="2.031"/>
            <path id="Path_104" data-name="Path 104" d="M363.634,127.955l-6.666-20.436a7.254,7.254,0,0,1,5.289-8.756l6.388-1.577a7.254,7.254,0,0,1,8.756,5.289l3.611,21.191" transform="translate(-338.901 -96.976)" fill="#ffca58" stroke="#323139" stroke-linecap="round" stroke-linejoin="round" stroke-miterlimit="10" stroke-width="2.031"/>
            <path id="Path_105" data-name="Path 105" d="M349.458,118.187a29.707,29.707,0,0,0-.015,13.317l57.935-14.3a29.727,29.727,0,0,0-6.21-11.781Z" transform="translate(-344.025 -91.611)" fill="#323139" opacity="0.23"/>
            <path id="Path_106" data-name="Path 106" d="M411.147,118.687l-59.661,14.728a4.568,4.568,0,0,1-5.515-3.331h0a4.568,4.568,0,0,1,3.331-5.515l59.661-14.728a4.568,4.568,0,0,1,5.515,3.331h0A4.567,4.567,0,0,1,411.147,118.687Z" transform="translate(-345.839 -88.886)" fill="#ffa166" stroke="#323139" stroke-miterlimit="10" stroke-width="2.031"/>
            <path id="Path_107" data-name="Path 107" d="M409.928,113.291l-59.661,14.728a4.56,4.56,0,0,1-4.147-1.05,4.516,4.516,0,0,0-.149,2.656,4.569,4.569,0,0,0,5.515,3.331l59.661-14.728a4.55,4.55,0,0,0,1.964-7.8A4.559,4.559,0,0,1,409.928,113.291Z" transform="translate(-345.839 -88.427)" fill="#323139" opacity="0.23"/>
          </g>
        </g>
        <line id="Line_59" data-name="Line 59" x2="425.244" transform="translate(150.17 383.895)" fill="none" stroke="#323139" stroke-linecap="round" stroke-linejoin="round" stroke-miterlimit="10" stroke-width="1.79"/>
      </g>
    </g>
  </g>
</svg>
