<svg xmlns="http://www.w3.org/2000/svg" width="208.435" height="246.065" viewBox="0 0 208.435 246.065">
  <g id="Group_529" data-name="Group 529" transform="translate(1219.993 -5852.5)">
    <path id="Shadow" d="M196.38,302.24,46.75,388.63c-2.33,1.34-2.33,3.52,0,4.86l46.89,27.07a9.32,9.32,0,0,0,8.42,0l149.63-86.39c2.33-1.34,2.33-3.52,0-4.86L204.8,302.24A9.32,9.32,0,0,0,196.38,302.24Z" transform="translate(-1264.995 5677)" fill="#e0e0e0"/>
    <g id="Folder" transform="translate(-1264.995 5677)">
      <g id="Folder-2" data-name="Folder">
        <g id="Group_477" data-name="Group 477">
          <path id="Path_916" data-name="Path 916" d="M57.97,264.06l146.41-84.53V308.34L57.97,392.87Z" fill="#5abaef"/>
          <path id="Path_917" data-name="Path 917" d="M204.38,179.53l29.63,17.1V325.45l-29.63-17.11Z" fill="#4ba0ce"/>
          <path id="Path_919" data-name="Path 919" d="M57.97,260.03,204.38,175.5l33.12,19.12-3.49,2.01-29.63-17.1L61.45,262.05Z" fill="#a5d4ec"/>
          <g id="Group_476" data-name="Group 476">
            <path id="Path_921" data-name="Path 921" d="M127.69,223.81l-12.54-18.09a2.647,2.647,0,0,0-.83-.77c-.6-.35-3.21-1.87-3.57-2.06a2.674,2.674,0,0,0-2.64.03L54.48,233.89v28.18l3.49-2.01v4.03l69.72-40.25Z" fill="#a5d4ec"/>
            <path id="Path_922" data-name="Path 922" d="M57.97,264.06V235.88l53.63-30.97a2.683,2.683,0,0,1,3.55.8l12.54,18.09L57.97,264.05Z" fill="#5abaef"/>
            <path id="Path_924" data-name="Path 924" d="M57.97,235.88l-3.49-2.01v28.18l3.49,2.01Z" fill="#ba68c8"/>
            <path id="Path_925" data-name="Path 925" d="M57.97,235.88l-3.49-2.01v28.18l3.49,2.01Z" fill="#4ba0ce"/>
          </g>
        </g>
        <g id="Group_480" data-name="Group 480">
          <g id="Group_478" data-name="Group 478">
            <path id="Path_926" data-name="Path 926" d="M77.55,369.56a2.342,2.342,0,0,0,2.32,0l123.21-71.14a4.09,4.09,0,0,0,1.86-3.22V190.8a1.321,1.321,0,0,0-.54-1.2c-.34-.19-3.15-1.82-3.49-2.01a1.3,1.3,0,0,0-1.31.13L75.96,259.1a4.088,4.088,0,0,0-1.86,3.21V366.23a2.335,2.335,0,0,0,1.17,2.02l2.29,1.31Z" fill="#f0f0f0"/>
            <path id="Path_927" data-name="Path 927" d="M81.06,264.19l-6.36-3.82a3.718,3.718,0,0,1,1.24-1.28l123.64-71.38a1.3,1.3,0,0,1,1.31-.13c.34.19,3.15,1.82,3.49,2.01a1.289,1.289,0,0,1,.54,1.2v1.88L81.05,264.18Z" fill="#e0e0e0"/>
          </g>
          <g id="Group_479" data-name="Group 479">
            <path id="Path_928" data-name="Path 928" d="M78.6,369.62c-.54,0-.6-.63-.6-.9V264.32a3.682,3.682,0,0,1,1.65-2.84L203.29,190.1a1.28,1.28,0,0,1,.62-.2.531.531,0,0,1,.37.14,1.068,1.068,0,0,1,.23.75v104.4a3.69,3.69,0,0,1-1.64,2.85L79.23,369.42a1.248,1.248,0,0,1-.61.2h0Z" fill="#fafafa"/>
            <path id="Path_929" data-name="Path 929" d="M203.9,190.33s.06.01.06.02a.719.719,0,0,1,.1.45V295.21a3.275,3.275,0,0,1-1.43,2.48l-97.61,56.35L78.99,369.07a.931.931,0,0,1-.4.14c-.17,0-.17-.42-.17-.47V264.33a3.257,3.257,0,0,1,1.43-2.47l123.64-71.38a.8.8,0,0,1,.4-.14m.01-.87a1.7,1.7,0,0,0-.83.25L79.43,261.1a4.088,4.088,0,0,0-1.86,3.21V368.72c0,.84.42,1.33,1.03,1.33a1.7,1.7,0,0,0,.83-.25l26.03-15.03,97.61-56.35a4.09,4.09,0,0,0,1.86-3.22V190.8c0-.84-.42-1.32-1.02-1.32h0Z" fill="#e0e0e0"/>
          </g>
        </g>
        <g id="Group_483" data-name="Group 483">
          <g id="Group_481" data-name="Group 481">
            <path id="Path_930" data-name="Path 930" d="M85.44,374.11a2.342,2.342,0,0,0,2.32,0l123.21-71.14a4.09,4.09,0,0,0,1.86-3.22V195.35a1.321,1.321,0,0,0-.54-1.2c-.34-.19-3.15-1.82-3.49-2.01a1.3,1.3,0,0,0-1.31.13L83.85,263.65a4.088,4.088,0,0,0-1.86,3.21V370.78a2.348,2.348,0,0,0,1.17,2.02l2.29,1.31Z" fill="#f0f0f0"/>
            <path id="Path_931" data-name="Path 931" d="M88.96,268.75l-6.36-3.82a3.718,3.718,0,0,1,1.24-1.28l123.64-71.38a1.3,1.3,0,0,1,1.31-.13c.34.19,3.15,1.82,3.49,2.01a1.289,1.289,0,0,1,.54,1.2v1.88L88.95,268.74Z" fill="#e0e0e0"/>
          </g>
          <g id="Group_482" data-name="Group 482">
            <path id="Path_932" data-name="Path 932" d="M86.5,374.18c-.54,0-.6-.63-.6-.9V268.88a3.682,3.682,0,0,1,1.65-2.84l123.64-71.38a1.28,1.28,0,0,1,.62-.2.531.531,0,0,1,.37.14,1.068,1.068,0,0,1,.23.75v104.4a3.69,3.69,0,0,1-1.64,2.85L87.13,373.98a1.248,1.248,0,0,1-.61.2h0Z" fill="#fafafa"/>
            <path id="Path_933" data-name="Path 933" d="M211.8,194.88s.06.01.06.02a.719.719,0,0,1,.1.45V299.76a3.275,3.275,0,0,1-1.43,2.48l-97.61,56.35L86.89,373.62a.931.931,0,0,1-.4.14c-.17,0-.17-.42-.17-.47V268.88a3.257,3.257,0,0,1,1.43-2.47l123.64-71.38a.8.8,0,0,1,.4-.14m.01-.86a1.7,1.7,0,0,0-.83.25L87.33,265.66a4.088,4.088,0,0,0-1.86,3.21V373.28c0,.84.42,1.33,1.03,1.33a1.7,1.7,0,0,0,.83-.25l26.03-15.03,97.61-56.35a4.09,4.09,0,0,0,1.86-3.22V195.36c0-.84-.42-1.32-1.02-1.32h0Z" fill="#e0e0e0"/>
          </g>
        </g>
        <g id="Group_486" data-name="Group 486">
          <g id="Group_484" data-name="Group 484">
            <path id="Path_934" data-name="Path 934" d="M93.33,378.67a2.342,2.342,0,0,0,2.32,0l123.21-71.14a4.09,4.09,0,0,0,1.86-3.22V199.91a1.321,1.321,0,0,0-.54-1.2c-.34-.19-3.15-1.82-3.49-2.01a1.3,1.3,0,0,0-1.31.13L91.74,268.21a4.088,4.088,0,0,0-1.86,3.21V375.34a2.335,2.335,0,0,0,1.17,2.02l2.29,1.31Z" fill="#f0f0f0"/>
            <path id="Path_935" data-name="Path 935" d="M96.85,273.3l-6.36-3.82a3.718,3.718,0,0,1,1.24-1.28l123.64-71.38a1.3,1.3,0,0,1,1.31-.13c.34.19,3.15,1.82,3.49,2.01a1.289,1.289,0,0,1,.54,1.2v1.88L96.84,273.29Z" fill="#e0e0e0"/>
          </g>
          <g id="Group_485" data-name="Group 485">
            <path id="Path_936" data-name="Path 936" d="M94.39,378.74c-.54,0-.6-.63-.6-.9V273.44a3.682,3.682,0,0,1,1.65-2.84l123.64-71.38a1.28,1.28,0,0,1,.62-.2.531.531,0,0,1,.37.14,1.068,1.068,0,0,1,.23.75v104.4a3.69,3.69,0,0,1-1.64,2.85L95.02,378.54a1.28,1.28,0,0,1-.61.2h0Z" fill="#fafafa"/>
            <path id="Path_937" data-name="Path 937" d="M219.69,199.44s.06.01.06.02a.719.719,0,0,1,.1.45V304.32a3.275,3.275,0,0,1-1.43,2.48l-97.61,56.35L94.78,378.18a.931.931,0,0,1-.4.14c-.17,0-.17-.42-.17-.47V273.44a3.257,3.257,0,0,1,1.43-2.47l123.64-71.38a.8.8,0,0,1,.4-.14m.01-.87a1.7,1.7,0,0,0-.83.25L95.22,270.21a4.088,4.088,0,0,0-1.86,3.21V377.83c0,.84.42,1.33,1.03,1.33a1.7,1.7,0,0,0,.83-.25l26.03-15.03,97.61-56.35a4.09,4.09,0,0,0,1.86-3.22V199.91c0-.84-.42-1.32-1.02-1.32h0Z" fill="#e0e0e0"/>
          </g>
        </g>
        <g id="Group_487" data-name="Group 487">
          <path id="Path_938" data-name="Path 938" d="M240.99,196.63V321.16a8.211,8.211,0,0,1-3.72,6.44L94.8,409.85a8.3,8.3,0,0,1-7.44,0L58.18,393a8.21,8.21,0,0,1-3.71-6.43V262.04l36.61,21.14,149.9-86.55Z" fill="#5abaef"/>
          <path id="Path_939" data-name="Path 939" d="M91.09,283.18V410.73a7.632,7.632,0,0,1-3.72-.88L58.19,393a8.21,8.21,0,0,1-3.71-6.43V262.04Z" fill="#4ba0ce"/>
          <path id="Path_940" data-name="Path 940" d="M240.99,196.63l-3.49-2.01L91.09,279.15l-29.64-17.1-3.48,2.01,33.12,19.12Z" fill="#a5d4ec"/>
        </g>
        <g id="Group_489" data-name="Group 489">
          <path id="Path_942" data-name="Path 942" d="M145.43,344.8a2.741,2.741,0,0,1-1.4-.37,3.411,3.411,0,0,1-1.52-3.15V301.56a9.049,9.049,0,0,1,4.14-7.18h0l69.26-39.99a3.446,3.446,0,0,1,3.49-.26,3.411,3.411,0,0,1,1.52,3.15V297a9.049,9.049,0,0,1-4.14,7.18l-69.26,39.99a4.185,4.185,0,0,1-2.09.63Zm2.09-48.94a7.4,7.4,0,0,0-3.29,5.69v39.72a1.441,1.441,0,0,0,2.43,1.4l69.26-39.99a7.4,7.4,0,0,0,3.29-5.69V257.27a1.441,1.441,0,0,0-2.43-1.4l-69.26,39.99h0Z" fill="#fafafa"/>
          <g id="Group_488" data-name="Group 488">
            <path id="Path_943" data-name="Path 943" d="M173.45,312.8a.436.436,0,0,1,.57.04.982.982,0,0,1,.24.74v4.88a2.335,2.335,0,0,1-.24,1.01,1.535,1.535,0,0,1-.57.7l-16.02,9.25a.436.436,0,0,1-.57-.04.982.982,0,0,1-.24-.74v-4.65a3.567,3.567,0,0,1,.15-1.1,6.933,6.933,0,0,1,.3-.77l9.56-22.87-8.91,5.14a.436.436,0,0,1-.57-.04.982.982,0,0,1-.24-.74v-4.88a2.335,2.335,0,0,1,.24-1.01,1.535,1.535,0,0,1,.57-.7l15.42-8.9a.436.436,0,0,1,.57.04.982.982,0,0,1,.24.74v4.65a4.223,4.223,0,0,1-.39,1.74L164,318.25l9.44-5.45Z" fill="#fff"/>
            <path id="Path_944" data-name="Path 944" d="M179.81,316.48a.425.425,0,0,1-.57-.04.982.982,0,0,1-.24-.74V285.98a2.335,2.335,0,0,1,.24-1.01,1.535,1.535,0,0,1,.57-.7l3.92-2.26a.436.436,0,0,1,.57.04.982.982,0,0,1,.24.74v29.72a2.335,2.335,0,0,1-.24,1.01,1.535,1.535,0,0,1-.57.7Z" fill="#fff"/>
            <path id="Path_945" data-name="Path 945" d="M199.57,272.87a9.818,9.818,0,0,1,3.44-1.32,3.583,3.583,0,0,1,2.6.52,4.654,4.654,0,0,1,1.66,2.42,13.562,13.562,0,0,1,.58,4.36,21.836,21.836,0,0,1-.58,5.08,17.858,17.858,0,0,1-1.66,4.32,16.509,16.509,0,0,1-2.6,3.53,15.412,15.412,0,0,1-3.44,2.67l-3.83,2.21v9.39a2.335,2.335,0,0,1-.24,1.01,1.535,1.535,0,0,1-.57.7l-3.91,2.26a.436.436,0,0,1-.57-.04.982.982,0,0,1-.24-.74V279.52a2.335,2.335,0,0,1,.24-1.01,1.535,1.535,0,0,1,.57-.7l8.55-4.93Zm-3.83,16.61,3.68-2.12a5.91,5.91,0,0,0,2.08-2.05,6.046,6.046,0,0,0,.82-3.26c0-1.29-.27-2.06-.82-2.31a2.292,2.292,0,0,0-2.08.35l-3.68,2.12Z" fill="#fff"/>
          </g>
        </g>
        <g id="Zipper">
          <path id="Path_946" data-name="Path 946" d="M108.52,273.12V401.93l10.45-6.04V267.08Z" opacity="0.3"/>
          <g id="Group_490" data-name="Group 490">
            <path id="Path_947" data-name="Path 947" d="M112.83,359.73v-.71l1.01-.59v.25l.6-.34v-2.91l-.6.34v.24l-1.01.58v-.75l-4.31,2.49v3.89Z" fill="#e0e0e0"/>
            <path id="Path_948" data-name="Path 948" d="M112.83,366.17v-.71l1.01-.59v.25l.6-.34v-2.91l-.6.34v.24l-1.01.58v-.75l-4.31,2.49v3.89Z" fill="#e0e0e0"/>
            <path id="Path_949" data-name="Path 949" d="M112.83,353.29v-.71l1.01-.59v.25l.6-.34v-2.91l-.6.34v.24l-1.01.58v-.75l-4.31,2.49v3.89Z" fill="#e0e0e0"/>
            <path id="Path_950" data-name="Path 950" d="M112.83,372.61v-.71l1.01-.59v.25l.6-.34v-2.91l-.6.34v.24l-1.01.58v-.75l-4.31,2.49v3.89Z" fill="#e0e0e0"/>
            <path id="Path_951" data-name="Path 951" d="M112.83,346.85v-.71l1.01-.59v.25l.6-.34v-2.91l-.6.34v.24l-1.01.58v-.75l-4.31,2.49v3.89Z" fill="#e0e0e0"/>
            <path id="Path_952" data-name="Path 952" d="M112.83,385.49v-.71l1.01-.59v.25l.6-.34v-2.91l-.6.34v.24l-1.01.58v-.75l-4.31,2.49v3.89Z" fill="#e0e0e0"/>
            <path id="Path_953" data-name="Path 953" d="M112.83,391.93v-.71l1.01-.59v.25l.6-.34v-2.91l-.6.34v.24l-1.01.58v-.75l-4.31,2.49v3.89Z" fill="#e0e0e0"/>
            <path id="Path_954" data-name="Path 954" d="M112.83,398.37v-.71l1.01-.59v.25l.6-.34v-2.91l-.6.34v.24l-1.01.58v-.75l-4.31,2.49v3.89Z" fill="#e0e0e0"/>
            <path id="Path_955" data-name="Path 955" d="M112.83,340.41v-.71l1.01-.59v.25l.6-.34v-2.91l-.6.34v.24l-1.01.58v-.75l-4.31,2.49v3.89Z" fill="#e0e0e0"/>
            <path id="Path_956" data-name="Path 956" d="M112.83,379.05v-.71l1.01-.59V378l.6-.34v-2.91l-.6.34v.24l-1.01.58v-.75l-4.31,2.49v3.89Z" fill="#e0e0e0"/>
            <path id="Path_957" data-name="Path 957" d="M112.83,301.77v-.71l1.01-.59v.25l.6-.34v-2.91l-.6.34v.24l-1.01.58v-.75l-4.31,2.49v3.89Z" fill="#e0e0e0"/>
            <path id="Path_958" data-name="Path 958" d="M112.83,288.89v-.71l1.01-.59v.25l.6-.34v-2.91l-.6.34v.24l-1.01.58V285l-4.31,2.49v3.89Z" fill="#e0e0e0"/>
            <path id="Path_959" data-name="Path 959" d="M113.65,398.96l5.32-3.07v-1.55l-4.31,2.49v.71l-1.01.58Z" fill="#e0e0e0"/>
            <path id="Path_960" data-name="Path 960" d="M112.83,295.33v-.71l1.01-.59v.25l.6-.34v-2.91l-.6.34v.24l-1.01.58v-.75l-4.31,2.49v3.89Z" fill="#e0e0e0"/>
            <path id="Path_961" data-name="Path 961" d="M108.52,274.61v3.89l4.31-2.49v-.71l1.01-.59v.25l.6-.34v-2.91l-.6.34v.24l-1.01.58v-.75Z" fill="#e0e0e0"/>
            <path id="Path_962" data-name="Path 962" d="M112.83,333.97v-.71l1.01-.59v.25l.6-.34v-2.91l-.6.34v.24l-1.01.58v-.75l-4.31,2.49v3.89Z" fill="#e0e0e0"/>
            <path id="Path_963" data-name="Path 963" d="M112.83,282.45v-.71l1.01-.59v.25l.6-.34v-2.91l-.6.34v.24l-1.01.58v-.75l-4.31,2.49v3.89Z" fill="#e0e0e0"/>
            <path id="Path_964" data-name="Path 964" d="M112.83,321.09v-.71l1.01-.59v.25l.6-.34v-2.91l-.6.34v.24l-1.01.58v-.75l-4.31,2.49v3.89Z" fill="#e0e0e0"/>
            <path id="Path_965" data-name="Path 965" d="M112.83,327.53v-.71l1.01-.59v.25l.6-.34v-2.91l-.6.34v.24l-1.01.58v-.75l-4.31,2.49v3.89Z" fill="#e0e0e0"/>
            <path id="Path_966" data-name="Path 966" d="M112.83,314.65v-.71l1.01-.59v.25l.6-.34v-2.91l-.6.34v.24l-1.01.58v-.75l-4.31,2.49v3.89Z" fill="#e0e0e0"/>
            <path id="Path_967" data-name="Path 967" d="M112.83,308.21v-.71l1.01-.59v.25l.6-.34v-2.91l-.6.34v.24l-1.01.58v-.75l-4.31,2.49v3.89Z" fill="#e0e0e0"/>
            <path id="Path_968" data-name="Path 968" d="M114.66,370.97v.7l-1.01.59V372l-.6.35v2.91l.6-.35v-.22l1.01-.59v.75l4.31-2.49v-3.89Z" fill="#e0e0e0"/>
            <path id="Path_969" data-name="Path 969" d="M114.66,306.56v.71l-1.01.59v-.26l-.6.35v2.91l.6-.35v-.23l1.01-.58v.75l4.31-2.49v-3.89Z" fill="#e0e0e0"/>
            <path id="Path_970" data-name="Path 970" d="M114.66,300.12v.71l-1.01.59v-.26l-.6.35v2.91l.6-.35v-.23l1.01-.58v.75l4.31-2.49v-3.89Z" fill="#e0e0e0"/>
            <path id="Path_971" data-name="Path 971" d="M114.66,313v.71l-1.01.59v-.26l-.6.35v2.91l.6-.35v-.23l1.01-.58v.75l4.31-2.49v-3.89Z" fill="#e0e0e0"/>
            <path id="Path_972" data-name="Path 972" d="M114.66,293.68v.71l-1.01.59v-.26l-.6.35v2.91l.6-.35v-.23l1.01-.58v.75l4.31-2.49v-3.89Z" fill="#e0e0e0"/>
            <path id="Path_973" data-name="Path 973" d="M114.66,319.44v.71l-1.01.59v-.26l-.6.35v2.91l.6-.35v-.23l1.01-.58v.75l4.31-2.49v-3.89Z" fill="#e0e0e0"/>
            <path id="Path_974" data-name="Path 974" d="M113.65,270.15v0l-.6.35v1.72l.6-.35v-.23l1.01-.58v.75l4.31-2.49v-2.24Z" fill="#e0e0e0"/>
            <path id="Path_975" data-name="Path 975" d="M114.66,287.24v.71l-1.01.59v-.26l-.6.35v2.91l.6-.35v-.23l1.01-.58v.75l4.31-2.49v-3.89Z" fill="#e0e0e0"/>
            <path id="Path_976" data-name="Path 976" d="M114.66,325.88v.71l-1.01.59v-.26l-.6.35v2.91l.6-.35v-.23l1.01-.58v.75l4.31-2.49v-3.89Z" fill="#e0e0e0"/>
            <path id="Path_977" data-name="Path 977" d="M114.66,274.36v.71l-1.01.59v-.26l-.6.35v2.91l.6-.35v-.23l1.01-.58v.75l4.31-2.49v-3.89Z" fill="#e0e0e0"/>
            <path id="Path_978" data-name="Path 978" d="M114.66,280.8v.71l-1.01.59v-.26l-.6.35v2.91l.6-.35v-.23l1.01-.58v.75l4.31-2.49v-3.89Z" fill="#e0e0e0"/>
            <path id="Path_979" data-name="Path 979" d="M114.66,358.09v.7l-1.01.59v-.26l-.6.35v2.91l.6-.35v-.22l1.01-.59v.75l4.31-2.49v-3.89Z" fill="#e0e0e0"/>
            <path id="Path_980" data-name="Path 980" d="M114.66,364.53v.7l-1.01.59v-.26l-.6.35v2.91l.6-.35v-.22l1.01-.59v.75l4.31-2.49v-3.89Z" fill="#e0e0e0"/>
            <path id="Path_981" data-name="Path 981" d="M114.66,383.85v.7l-1.01.59v-.26l-.6.35v2.91l.6-.35v-.22l1.01-.59v.75l4.31-2.49v-3.89Z" fill="#e0e0e0"/>
            <path id="Path_982" data-name="Path 982" d="M114.66,377.41v.7l-1.01.59v-.26l-.6.35v2.91l.6-.35v-.22l1.01-.59v.75l4.31-2.49v-3.89Z" fill="#e0e0e0"/>
            <path id="Path_983" data-name="Path 983" d="M114.66,390.29v.7l-1.01.59v-.26l-.6.35v2.91l.6-.35v-.22l1.01-.59v.75l4.31-2.49v-3.89Z" fill="#e0e0e0"/>
            <path id="Path_984" data-name="Path 984" d="M114.66,338.76v.71l-1.01.59v-.26l-.6.35v2.91l.6-.35v-.23l1.01-.58v.75l4.31-2.49v-3.89Z" fill="#e0e0e0"/>
            <path id="Path_985" data-name="Path 985" d="M114.66,332.32v.71l-1.01.59v-.26l-.6.35v2.91l.6-.35v-.22l1.01-.59v.75l4.31-2.49v-3.89Z" fill="#e0e0e0"/>
            <path id="Path_986" data-name="Path 986" d="M114.66,345.2v.71l-1.01.59v-.26l-.6.35v2.91l.6-.35v-.22l1.01-.59v.75l4.31-2.49v-3.89Z" fill="#e0e0e0"/>
            <path id="Path_987" data-name="Path 987" d="M113.65,397.87l-.6.35v1.09l.6-.35Z" fill="#e0e0e0"/>
            <path id="Path_988" data-name="Path 988" d="M114.66,351.65v.7l-1.01.59v-.26l-.6.35v2.91l.6-.35v-.22l1.01-.59v.75l4.31-2.49v-3.89Z" fill="#e0e0e0"/>
          </g>
          <g id="Group_494" data-name="Group 494">
            <g id="Group_491" data-name="Group 491">
              <path id="Path_989" data-name="Path 989" d="M122.58,269.11c-.31-.18-1.57-.91-1.86-1.08a4.5,4.5,0,0,0-3.98.28l-6,3.46a11.37,11.37,0,0,0-3.52,3.52l-.91,1.58a4.936,4.936,0,0,0,0,4.46l.91,1.58a11.342,11.342,0,0,1,1.29,4.8v3.3a1.3,1.3,0,0,0,.54,1.2c.34.2,1.53.89,1.87,1.08a1.318,1.318,0,0,0,1.32-.13l6.74-3.87a4.088,4.088,0,0,0,1.86-3.21v-3.33a18.576,18.576,0,0,1,.84-5.01l1.81-5.2a2.948,2.948,0,0,0-.9-3.44Z" fill="#37474f"/>
              <path id="Path_990" data-name="Path 990" d="M106.32,276.88a4.936,4.936,0,0,0,0,4.46l.91,1.58a11.342,11.342,0,0,1,1.29,4.8v3.3a1.3,1.3,0,0,0,.54,1.2c.34.2,1.53.89,1.87,1.08a1.206,1.206,0,0,0,1.08-.02V278.94l-5.16-2.98-.53.91Z" fill="#263238"/>
              <path id="Path_991" data-name="Path 991" d="M118.61,269.39a4.468,4.468,0,0,1,3.98-.28,2.929,2.929,0,0,1,.9,3.44l-1.81,5.2a18.132,18.132,0,0,0-.84,5.01v3.33a4.088,4.088,0,0,1-1.86,3.21l-6.74,3.87c-1.03.59-1.86.11-1.86-1.08v-3.3a11.342,11.342,0,0,0-1.29-4.8l-.91-1.58a4.936,4.936,0,0,1,0-4.46l.91-1.58a11.37,11.37,0,0,1,3.52-3.52l6-3.46Z" fill="#455a64"/>
            </g>
            <g id="Group_492" data-name="Group 492">
              <path id="Path_992" data-name="Path 992" d="M115.49,286l.88-.51v1.14Z"/>
              <path id="Path_993" data-name="Path 993" d="M115.49,274.92s.39.23.87.5a2.821,2.821,0,0,1,.87,2.22v8.64c0,.63-.17,1.09-.43,1.23l1.94-1.12c.26-.15.43-.6.43-1.23v-8.64a2.821,2.821,0,0,0-.87-2.22c-.48-.28-.87-.5-.87-.5Z" fill="#37474f"/>
              <path id="Path_994" data-name="Path 994" d="M115.49,287v-.99l.87.5c0-.06.01-.14.01-.22v-8.64a2.332,2.332,0,0,0-.45-1.48l-.43-.25v-.99h0s.39.23.87.5a2.821,2.821,0,0,1,.87,2.22v8.64c0,.63-.17,1.09-.43,1.23a.436.436,0,0,1-.44-.02l-.87-.5h0Z" fill="#263238"/>
            </g>
            <g id="Group_493" data-name="Group 493">
              <path id="Path_995" data-name="Path 995" d="M122.07,293.48a10.43,10.43,0,0,1-1.34-5.11v-5.9l-1.3-.76-.25.15v3.31a1.43,1.43,0,0,1-.44,1.24l-1.07.62v2.74l-2.18,1.26V287l.87-.5v-3.02l-4.15,2.4v6.06a20.5,20.5,0,0,1-1.07,6.23,6.19,6.19,0,0,0-.45,2.16,2.37,2.37,0,0,0,.95,2.13c.24.15,1.17.67,1.39.8a2.7,2.7,0,0,0,2.68-.29l3.03-1.74a7.975,7.975,0,0,0,3.72-6.17,3.009,3.009,0,0,0-.39-1.57Zm-5.43,5.31-1.42.82a1.427,1.427,0,0,1-.41.18,1.483,1.483,0,0,1-.03-.31,3.775,3.775,0,0,1,1.75-2.91l1.42-.82a1.77,1.77,0,0,1,.41-.18,1.123,1.123,0,0,1,.03.32A3.731,3.731,0,0,1,116.64,298.79Z" fill="#263238"/>
              <path id="Path_996" data-name="Path 996" d="M122.07,293.48a10.43,10.43,0,0,1-1.34-5.11v-5.9l-1.55.89v1.81a1.973,1.973,0,0,1-.21.98v4.37l-3.48,2.02V287l.88-.51v-1.52l-.89.51-1.97,1.14v6.06a20.5,20.5,0,0,1-1.07,6.23,6.19,6.19,0,0,0-.45,2.16c0,2.22,1.66,3.06,3.72,1.88l3.03-1.74a7.975,7.975,0,0,0,3.72-6.17,3.009,3.009,0,0,0-.39-1.57Zm-4.13,6.07-1.42.82c-.96.56-1.75.16-1.75-.88a3.791,3.791,0,0,1,1.75-2.91l1.42-.82c.97-.56,1.75-.15,1.75.89A3.747,3.747,0,0,1,117.94,299.55Z" fill="#455a64"/>
              <path id="Path_997" data-name="Path 997" d="M113.52,286.63l-1.3-.75,4.15-2.4v1.5Z" fill="#37474f"/>
              <path id="Path_998" data-name="Path 998" d="M120.73,282.46l-1.3-.76-.21.12v1.51Z" fill="#37474f"/>
              <path id="Path_999" data-name="Path 999" d="M117.67,289.76l1.3.75-3.48,2.02v-1.51Z" fill="#37474f"/>
              <path id="Path_1000" data-name="Path 1000" d="M116.52,300.37l1.42-.82a3.6,3.6,0,0,0,1.17-1.16l-1.31-.75a3.5,3.5,0,0,1-1.17,1.16l-1.42.82a1.427,1.427,0,0,1-.41.18C114.95,300.61,115.66,300.87,116.52,300.37Z" fill="#37474f"/>
            </g>
          </g>
        </g>
      </g>
    </g>
  </g>
</svg>
